HIERARCHY
ROOT hip
{
  OFFSET 0 0 0
  CHANNELS 6 Xposition Yposition Zposition Zrotation Yrotation Xrotation
  JOINT abdomen
  {
    OFFSET 0 20.6881 -0.73152
    CHANNELS 3 Zrotation Xrotation Yrotation
    JOINT chest
    {
      OFFSET 0 11.7043 -0.48768
      CHANNELS 3 Zrotation Xrotation Yrotation
      JOINT neck
      {
        OFFSET 0 22.1894 -2.19456
        CHANNELS 3 Zrotation Xrotation Yrotation
        JOINT head
        {
          OFFSET -0.24384 7.07133 1.2192
          CHANNELS 3 Zrotation Xrotation Yrotation
          JOINT leftEye
          {
            OFFSET 4.14528 8.04674 8.04672
            CHANNELS 3 Zrotation Xrotation Yrotation
            End Site
            {
              OFFSET 1 0 0
            }
          }
          JOINT rightEye
          {
            OFFSET -3.6576 8.04674 8.04672
            CHANNELS 3 Zrotation Xrotation Yrotation
            End Site
            {
              OFFSET 1 0 0
            }
          }
        }
      }
      JOINT rCollar
      {
        OFFSET -2.68224 19.2634 -4.8768
        CHANNELS 3 Zrotation Xrotation Yrotation
        JOINT rShldr
        {
          OFFSET -8.77824 -1.95073 1.46304
          CHANNELS 3 Zrotation Xrotation Yrotation
          JOINT rForeArm
          {
            OFFSET -28.1742 -1.7115 0.48768
            CHANNELS 3 Zrotation Xrotation Yrotation
            JOINT rHand
            {
              OFFSET -22.5879 0.773209 7.07136
              CHANNELS 3 Zrotation Xrotation Yrotation
              JOINT rThumb1
              {
                OFFSET -1.2192 -0.487915 3.41376
                CHANNELS 3 Zrotation Xrotation Yrotation
                JOINT rThumb2
                {
                  OFFSET -3.37035 -0.52449 3.41376
                  CHANNELS 3 Zrotation Xrotation Yrotation
                  End Site
                  {
                    OFFSET -1.78271 -1.18214 1.43049
                  }
                }
              }
              JOINT rIndex1
              {
                OFFSET -7.75947 0.938293 5.60832
                CHANNELS 3 Zrotation Xrotation Yrotation
                JOINT rIndex2
                {
                  OFFSET -2.54057 -0.884171 1.56538
                  CHANNELS 3 Zrotation Xrotation Yrotation
                  End Site
                  {
                    OFFSET -1.62519 -0.234802 1.16502
                  }
                }
              }
              JOINT rMid1
              {
                OFFSET -8.24714 1.18213 3.41376
                CHANNELS 3 Zrotation Xrotation Yrotation
                JOINT rMid2
                {
                  OFFSET -3.10165 -0.590103 1.0647
                  CHANNELS 3 Zrotation Xrotation Yrotation
                  End Site
                  {
                    OFFSET -2.48547 -0.328903 0.83742
                  }
                }
              }
              JOINT rRing1
              {
                OFFSET -8.82822 0.546677 1.51678
                CHANNELS 3 Zrotation Xrotation Yrotation
                JOINT rRing2
                {
                  OFFSET -2.60934 -0.819778 -0.0198488
                  CHANNELS 3 Zrotation Xrotation Yrotation
                  End Site
                  {
                    OFFSET -2.33842 -0.294052 0.168128
                  }
                }
              }
              JOINT rPinky1
              {
                OFFSET -8.27202 -0.0477905 -0.4584
                CHANNELS 3 Zrotation Xrotation Yrotation
                JOINT rPinky2
                {
                  OFFSET -1.82734 -0.647385 -0.700984
                  CHANNELS 3 Zrotation Xrotation Yrotation
                  End Site
                  {
                    OFFSET -1.69225 -0.51767 -0.607171
                  }
                }
              }
            }
          }
        }
      }
      JOINT lCollar
      {
        OFFSET 2.68224 19.2634 -4.8768
        CHANNELS 3 Zrotation Xrotation Yrotation
        JOINT lShldr
        {
          OFFSET 8.77824 -1.95073 1.46304
          CHANNELS 3 Zrotation Xrotation Yrotation
          JOINT lForeArm
          {
            OFFSET 28.1742 -1.7115 0.48768
            CHANNELS 3 Zrotation Xrotation Yrotation
            JOINT lHand
            {
              OFFSET 22.5879 0.773209 7.07136
              CHANNELS 3 Zrotation Xrotation Yrotation
              JOINT lThumb1
              {
                OFFSET 1.2192 -0.487915 3.41376
                CHANNELS 3 Zrotation Xrotation Yrotation
                JOINT lThumb2
                {
                  OFFSET 3.37035 -0.52449 3.41376
                  CHANNELS 3 Zrotation Xrotation Yrotation
                  End Site
                  {
                    OFFSET 1.78271 -1.18214 1.43049
                  }
                }
              }
              JOINT lIndex1
              {
                OFFSET 7.75947 0.938293 5.60832
                CHANNELS 3 Zrotation Xrotation Yrotation
                JOINT lIndex2
                {
                  OFFSET 2.54057 -0.884171 1.56538
                  CHANNELS 3 Zrotation Xrotation Yrotation
                  End Site
                  {
                    OFFSET 1.62519 -0.234802 1.16502
                  }
                }
              }
              JOINT lMid1
              {
                OFFSET 8.24714 1.18213 3.41376
                CHANNELS 3 Zrotation Xrotation Yrotation
                JOINT lMid2
                {
                  OFFSET 3.10165 -0.590103 1.0647
                  CHANNELS 3 Zrotation Xrotation Yrotation
                  End Site
                  {
                    OFFSET 2.48547 -0.328903 0.83742
                  }
                }
              }
              JOINT lRing1
              {
                OFFSET 8.82822 0.546677 1.51678
                CHANNELS 3 Zrotation Xrotation Yrotation
                JOINT lRing2
                {
                  OFFSET 2.60934 -0.819778 -0.0198488
                  CHANNELS 3 Zrotation Xrotation Yrotation
                  End Site
                  {
                    OFFSET 2.33842 -0.294052 0.168128
                  }
                }
              }
              JOINT lPinky1
              {
                OFFSET 8.27202 -0.0477905 -0.4584
                CHANNELS 3 Zrotation Xrotation Yrotation
                JOINT lPinky2
                {
                  OFFSET 1.82734 -0.647385 -0.700984
                  CHANNELS 3 Zrotation Xrotation Yrotation
                  End Site
                  {
                    OFFSET 1.69225 -0.51767 -0.607171
                  }
                }
              }
            }
          }
        }
      }
    }
  }
  JOINT rButtock
  {
    OFFSET -8.77824 4.35084 1.2192
    CHANNELS 3 Zrotation Xrotation Yrotation
    JOINT rThigh
    {
      OFFSET 0 -1.70687 -2.19456
      CHANNELS 3 Zrotation Xrotation Yrotation
      JOINT rShin
      {
        OFFSET 0 -36.8199 0.73152
        CHANNELS 3 Zrotation Xrotation Yrotation
        JOINT rFoot
        {
          OFFSET 0.73152 -45.1104 -5.12064
          CHANNELS 3 Zrotation Xrotation Yrotation
          End Site
          {
            OFFSET -1.1221 -3.69964 12.103
          }
        }
      }
    }
  }
  JOINT lButtock
  {
    OFFSET 8.77824 4.35084 1.2192
    CHANNELS 3 Zrotation Xrotation Yrotation
    JOINT lThigh
    {
      OFFSET 0 -1.70687 -2.19456
      CHANNELS 3 Zrotation Xrotation Yrotation
      JOINT lShin
      {
        OFFSET 0 -36.8199 0.73152
        CHANNELS 3 Zrotation Xrotation Yrotation
        JOINT lFoot
        {
          OFFSET -0.73152 -45.1104 -5.12064
          CHANNELS 3 Zrotation Xrotation Yrotation
          End Site
          {
            OFFSET 1.1221 -3.69964 12.103
          }
        }
      }
    }
  }
}
MOTION
Frames:	4
Frame Time:	0.00833333
-4.17048 65.1 21.8946 -0.0 -0.0 -0.0 -0.0 -0.0 -0.0 0.0 0.0 -0.0 7.93712 1.756887 47.545503 -6.661151 4.668205 -47.39558 -0.0 -0.0 0.0 -0.0 -0.0 0.0 -143.620413 38.233348 148.080496 -153.748773 -14.787283 171.174154 174.276638 -32.185581 140.410703 176.616057 1.718272 145.284295 -2.608268 2.55464 0.457401 -30.016817 22.937638 27.880794 -151.353117 -17.158427 121.133109 178.373151 -59.301401 106.460915 -39.289155 53.36602 32.877985 -159.23613 12.55413 143.354223 0.000474 0.063775 0.020036 -134.890068 71.775064 138.330502 -167.310771 79.513761 -148.59486 6.072599 10.264773 -0.815339 80.1661 68.371792 -83.260848 -16.926784 14.142456 0.162407 -167.505626 -7.811126 -169.838089 40.083242 65.957082 -23.922313 -1.590029 -1.575931 0.222909 -2.534074 -3.859319 3.182647 -159.641557 -69.973343 -102.396332 60.677474 47.969874 -55.063111 36.036059 51.723116 -29.832321 164.983688 -6.308419 -146.096504 74.840941 72.961123 -92.827929 160.144174 2.35776 173.591898 136.041664 -11.44294 133.394179 -6.196182 2.987401 -0.1764 -180.0 75.749642 -0.0 -180.0 75.749642 -0.0 3.093813 0.300867 27.366401 123.590255 -53.738268 8.869947 -180.0 75.749642 -0.0 -180.0 75.749642 -0.0 2.74577 11.919568 137.880989 -119.957436 -21.206381 147.337319
-4.092 64.9839 22.7704 -0.0 -0.0 -0.0 -0.0 -0.0 -0.0 0.0 0.0 -0.0 7.93712 1.756887 47.545503 -6.661151 4.668205 -47.39558 -0.0 0.0 -0.0 -0.0 0.0 -0.0 -143.620413 38.233348 148.080496 -155.393326 -26.092474 171.292274 -0.072036 19.944914 1.298523 -0.504406 1.613493 -0.048125 114.538671 -50.245352 55.721798 -18.005386 -49.708998 -28.94883 -155.193415 -24.299992 122.142835 -171.189483 -49.416346 112.232198 -0.571049 1.648356 0.322148 -0.493993 1.501049 0.109819 0.001084 2.623464 0.824318 -166.834261 -27.223986 175.524055 -113.837232 -39.284327 -111.847609 -19.075668 -39.652967 -21.601804 80.1661 68.371792 -83.260848 145.631406 75.541837 -165.573677 170.251485 1.556958 -176.679605 -3.083038 -9.651958 -0.592082 -88.928376 -50.831327 -37.599672 33.325394 5.390761 7.90072 2.68634 4.226753 -1.583637 -3.89509 -6.230263 1.541557 -68.983989 -80.15399 -40.578188 100.193774 59.385531 -90.724599 0.014868 -1.323148 0.415899 166.909014 -45.935154 -177.048848 44.838755 -48.032887 43.620107 146.69848 9.639687 144.849083 -180.0 75.749642 -0.0 -180.0 75.749642 -0.0 3.093813 0.300867 27.366401 123.590255 -53.738268 8.869947 -180.0 75.749642 -0.0 -180.0 75.749642 -0.0 2.74577 11.919568 137.880989 -119.957436 -21.206381 147.337319
-4.0303 64.8824 23.6496 -0.0 -0.0 -0.0 -0.0 -0.0 -0.0 0.0 0.0 -0.0 7.93712 1.756887 47.545503 -6.661151 4.668205 -47.39558 -0.0 0.0 -0.0 -0.0 0.0 -0.0 -143.620413 38.233348 148.080496 -153.748773 -14.787283 171.174154 74.948895 -68.942136 50.530984 -152.822266 60.665363 129.133106 -78.030619 38.689342 42.41267 57.690454 -42.983743 22.580651 -127.615651 18.962913 107.328458 -86.787235 62.065511 71.939137 -160.673322 -6.667841 143.245105 -4.22021 26.121209 6.365196 0.004673 0.918035 0.288384 -164.123105 17.674769 169.453472 -145.173549 12.06758 -141.82295 -21.42746 -38.998193 -25.340854 80.1661 68.371792 -83.260848 -16.926784 14.142456 0.162407 -166.542955 -0.320742 -170.016735 55.511175 71.017399 -38.05393 5.762555 5.57569 -1.158248 4.258782 5.41354 -7.121456 -45.282556 -63.865437 -4.306423 82.229658 41.903915 -66.299472 -89.035113 -81.393384 -59.759886 174.220566 -31.412378 -140.270647 145.119721 0.310087 179.225753 132.649975 83.229646 -156.935234 0.529991 -1.364052 0.490385 42.068335 -49.822186 39.891958 -180.0 75.749642 -0.0 -180.0 75.749642 -0.0 3.093813 0.300867 27.366401 62.382142 -42.624153 -25.866396 -180.0 75.749642 -0.0 -180.0 75.749642 -0.0 2.74577 11.919568 137.880989 -104.809707 -26.826142 158.108151
-3.98716 64.7759 24.5333 -0.0 -0.0 -0.0 -0.0 -0.0 -0.0 0.0 0.0 -0.0 11.624331 6.892644 83.839365 -8.105668 10.81949 -83.772938 -0.0 -0.0 0.0 -0.0 -0.0 0.0 -80.1661 68.371792 83.260848 16.926686 14.149077 -0.16198 -93.84552 -84.412124 -99.678854 3.431841 -10.707062 0.689977 76.384988 -49.199857 28.871344 -14.44379 -36.017423 -28.458407 -113.890355 30.848492 96.363383 94.411439 -76.662097 41.168207 -158.521826 -0.192208 142.144949 -4.290042 26.687085 6.137635 0.000171 0.022623 0.007107 -0.042072 0.555981 0.065849 -144.983436 11.469068 -141.654399 10.747256 16.563977 2.343193 80.1661 68.371792 -83.260848 -16.92511 14.254143 0.155212 175.110755 -71.353073 179.43534 2.167672 6.939082 0.106315 -76.384988 -49.199857 -28.871344 12.759519 -70.751249 45.665611 -78.321937 -74.343583 -30.812871 157.598033 -16.006669 -105.890797 -21.548599 -58.001218 -0.002502 175.451413 -31.120163 -140.823176 72.350995 72.974965 -90.218005 154.544269 -23.024356 169.279017 137.66294 -7.992072 134.926334 -9.514656 12.821177 -2.527892 -180.0 75.749642 -0.0 -180.0 75.749642 -0.0 2.512346 0.127625 22.075435 78.367515 -42.758668 -17.466806 -180.0 75.749642 -0.0 -180.0 75.749642 -0.0 5.634217 7.031168 86.353135 -5.621303 -9.900058 -90.94107
